<?xml version="1.0" standalone="no"?>
<!DOCTYPE svg PUBLIC "-//W3C//DTD SVG 20010904//EN"
 "http://www.w3.org/TR/2001/REC-SVG-20010904/DTD/svg10.dtd">
<svg version="1.0" xmlns="http://www.w3.org/2000/svg"
 width="256.000000pt" height="256.000000pt" viewBox="0 0 256.000000 256.000000"
 preserveAspectRatio="xMidYMid meet">
<metadata>
Created by potrace 1.14, written by Peter Selinger 2001-2017
</metadata>
<g transform="translate(0.000000,256.000000) scale(0.100000,-0.100000)"
fill="#000000" stroke="none">
<path d="M1090 2510 c0 -28 -7 -67 -15 -86 -8 -20 -67 -87 -133 -152 -101 -99
-122 -126 -140 -175 -29 -76 -28 -142 3 -234 14 -42 22 -79 17 -82 -5 -3 -192
-130 -415 -280 l-407 -275 0 -85 c1 -80 2 -84 14 -56 10 24 202 158 915 638
496 335 914 613 930 618 66 23 73 15 382 -442 157 -233 293 -437 302 -454 16
-29 16 -28 17 71 l0 101 -251 374 c-139 206 -261 385 -273 397 -36 40 -90 62
-154 62 -72 0 -49 14 -562 -333 l-394 -267 -18 42 c-9 24 -17 68 -17 99 -1 72
18 101 159 239 92 90 111 114 129 164 15 39 21 77 19 110 l-3 51 -52 3 -53 3
0 -51z"/>
<path d="M1820 2084 c-36 -25 -72 -49 -80 -54 -11 -7 -3 -25 43 -95 32 -47 62
-85 66 -83 26 10 161 105 161 112 0 17 -102 166 -114 165 -6 0 -40 -20 -76
-45z"/>
<path d="M1558 1907 c-43 -29 -78 -57 -78 -63 0 -8 81 -133 106 -163 2 -2 42
21 89 53 56 37 83 61 79 69 -30 50 -106 157 -112 156 -4 0 -42 -24 -84 -52z"/>
<path d="M1917 1779 l-148 -100 57 -82 c31 -45 58 -84 60 -86 4 -5 27 10 181
116 l122 84 -57 84 c-31 46 -59 84 -62 84 -3 0 -72 -45 -153 -100z"/>
<path d="M1302 1735 c-54 -36 -80 -60 -76 -68 27 -46 106 -157 111 -157 13 0
163 103 163 111 0 11 -103 168 -110 169 -3 0 -42 -25 -88 -55z"/>
<path d="M1052 1564 c-56 -37 -82 -60 -78 -70 3 -8 28 -48 56 -89 l51 -76 82
57 c45 32 84 59 86 61 4 2 -108 173 -113 173 -1 0 -39 -25 -84 -56z"/>
<path d="M1602 1565 c-45 -31 -82 -57 -82 -59 0 -8 111 -166 117 -166 11 0
162 105 163 113 0 9 -103 166 -110 167 -3 0 -42 -25 -88 -55z"/>
<path d="M2147 1563 l-78 -55 57 -81 c31 -45 58 -83 60 -85 7 -9 173 112 167
122 -37 63 -106 156 -116 155 -7 0 -47 -26 -90 -56z"/>
<path d="M805 1399 c-38 -28 -76 -54 -84 -58 -10 -6 -2 -26 39 -87 29 -43 56
-82 59 -86 4 -4 46 18 93 50 l87 58 -57 87 c-31 48 -59 87 -62 86 -3 0 -36
-22 -75 -50z"/>
<path d="M1344 1393 l-82 -57 56 -83 c30 -46 59 -83 64 -83 7 0 146 89 167
107 6 4 -110 173 -118 173 -3 -1 -43 -26 -87 -57z"/>
<path d="M1898 1397 c-43 -29 -78 -55 -78 -59 0 -13 112 -169 120 -166 21 9
160 104 160 111 0 14 -105 167 -115 166 -5 0 -45 -24 -87 -52z"/>
<path d="M2542 1353 c-18 -40 -1820 -1254 -1863 -1255 -16 -1 -40 4 -52 11
-21 11 -597 855 -616 903 -7 16 -10 -7 -10 -82 l-1 -105 132 -195 c377 -558
396 -585 438 -609 36 -20 52 -23 118 -19 l77 4 895 603 c492 333 896 605 898
606 2 2 2 39 0 84 -3 75 -4 79 -16 54z"/>
<path d="M545 1224 c-44 -30 -81 -58 -83 -64 -3 -9 93 -156 108 -165 7 -4 170
102 170 111 0 5 -98 154 -109 165 -3 4 -42 -17 -86 -47z"/>
<path d="M1097 1226 c-42 -29 -80 -56 -83 -59 -10 -9 108 -177 120 -170 45 26
156 107 156 114 0 11 -103 169 -110 168 -3 0 -40 -24 -83 -53z"/>
<path d="M1388 1051 l-337 -228 57 -83 c31 -46 60 -84 63 -84 7 -1 668 444
674 454 4 7 -101 164 -113 167 -4 1 -159 -101 -344 -226z"/>
<path d="M845 1054 c-44 -30 -80 -61 -80 -69 0 -7 24 -48 53 -90 l52 -75 78
51 c42 29 81 55 85 59 7 6 -70 136 -102 172 -3 4 -42 -18 -86 -48z"/>
<path d="M282 1045 l-82 -56 51 -77 c29 -42 55 -81 59 -85 4 -5 46 17 93 48
l86 57 -56 84 c-31 46 -59 84 -62 84 -3 0 -43 -25 -89 -55z"/>
<path d="M615 901 c-22 -15 -86 -59 -142 -98 l-102 -70 55 -81 c30 -45 59 -82
64 -82 6 0 75 43 154 96 l145 96 -56 84 c-31 46 -61 84 -67 84 -6 -1 -29 -13
-51 -29z"/>
<path d="M895 718 c-38 -27 -76 -53 -84 -58 -11 -6 -2 -26 44 -94 l58 -86 27
18 c15 9 54 35 87 57 l61 39 -59 88 c-33 48 -61 88 -62 87 -1 0 -33 -23 -72
-51z"/>
<path d="M628 539 c-43 -29 -78 -56 -78 -61 0 -7 87 -144 106 -167 4 -5 162
98 170 110 5 9 -103 169 -114 169 -4 0 -42 -23 -84 -51z"/>
</g>
</svg>
